<svg width="320" height="250" viewBox="0 0 320 250" fill="none" xmlns="http://www.w3.org/2000/svg">
<rect opacity="0.3" width="87.4338" height="27.4664" rx="7.37258" transform="matrix(0.866025 0.5 -0.866025 0.5 193.787 190.942)" fill="#003E9B"/>
<path d="M179.256 27.4532C183.704 24.3398 190.034 24.7642 196.666 28.6205L252.486 61.0767C256.163 63.2142 259.136 68.3765 259.136 72.6217L259.136 220.117C259.136 225.007 257.525 228.784 254.631 230.683L249.95 233.753C249.257 234.207 248.267 234.079 247.257 233.406L182.392 190.162L176.612 29.3039L179.256 27.4532Z" fill="#0C0D0E"/>
<path d="M174.686 34.1007C174.686 28.7886 178.41 26.6295 183.011 29.2747L245.057 64.9513C248.748 67.0736 251.744 72.2559 251.744 76.5178L251.744 228.711C251.744 234.023 248.02 236.183 243.419 233.537L181.373 197.861C177.682 195.738 174.686 190.556 174.686 186.294L174.686 34.1007Z" fill="#353A3F"/>
<rect width="81.9009" height="156.68" rx="7.7058" transform="matrix(0.866025 0.5 -2.20305e-08 1 177 32)" fill="url(#paint0_linear)"/>
<path d="M223.565 144.482C223.53 144.584 222.986 146.462 221.649 147.943C220.492 149.219 219.295 150.488 217.405 149.431C215.547 148.396 214.952 146.735 212.83 145.509C210.711 144.286 210.044 145.147 208.288 144.205C206.472 143.243 205.075 140.227 203.914 137.622C201.54 132.288 199.712 123.966 202.163 120.511C203.369 118.771 205.537 118.474 207.898 119.794C209.677 120.783 211.37 123.19 212.451 123.814C213.561 124.455 215.608 123.907 217.769 125.413C218.673 125.979 221.203 127.832 222.833 131.501C222.705 131.528 219.806 131.83 219.838 135.869C219.882 140.747 223.526 144.443 223.565 144.482ZM216.355 121.997C217.329 121.187 217.969 119.67 217.801 117.7C216.41 116.96 214.715 116.985 213.708 117.768C212.818 118.444 212.033 119.906 212.252 121.884C213.797 122.884 215.386 122.759 216.355 121.997Z" fill="#FFFFFE"/>
<path d="M193.401 39.23L229.866 60.2834L229.866 64.9619C229.866 68.8378 227.145 70.4088 223.789 68.4709L199.478 54.4352C196.122 52.4973 193.401 47.7844 193.401 43.9085L193.401 39.23Z" fill="#353A3F"/>
<g filter="url(#filter0_i)">
<path d="M247.86 134.761C246.785 134.888 245.804 134.136 245.647 133.064L240.962 101.099L243.005 93.2346L242.099 85.554C241.969 84.4571 240.975 83.6728 239.878 83.8023L230.736 84.8815C229.639 85.011 228.855 86.0053 228.984 87.1022L229.891 94.7828L233.71 101.955L238.379 133.81C238.542 134.924 237.753 135.954 236.635 136.086L234.029 136.393C232.932 136.523 232.148 137.517 232.277 138.614L235.05 162.099C235.63 167.009 240.094 170.372 245.031 169.789L247.808 169.461C252.745 168.878 256.286 164.415 255.724 159.658L252.952 136.173C252.822 135.076 251.828 134.292 250.731 134.422L247.86 134.761ZM242.466 157.334C242.556 158.101 241.875 158.96 241.104 159.051C240.333 159.142 239.471 158.466 239.38 157.698L237.931 145.423C237.84 144.656 238.521 143.798 239.293 143.707C240.064 143.615 240.926 144.292 241.017 145.059L242.466 157.334ZM250.18 156.423C250.271 157.191 249.59 158.049 248.818 158.14C248.047 158.231 247.185 157.555 247.094 156.788L245.645 144.512C245.554 143.745 246.235 142.887 247.007 142.796C247.778 142.705 248.64 143.381 248.731 144.148L250.18 156.423Z" fill="#3BD364"/>
</g>
<path d="M240.236 100.911L240.197 101.058L240.219 101.208L244.905 133.173C245.12 134.646 246.469 135.68 247.948 135.505L250.819 135.166C251.504 135.086 252.126 135.576 252.207 136.261L254.979 159.746C255.491 164.079 252.258 168.18 247.72 168.716L244.943 169.044C240.397 169.581 236.324 166.489 235.795 162.011L233.022 138.526C232.941 137.841 233.432 137.219 234.117 137.138L236.723 136.831C238.261 136.649 239.346 135.233 239.121 133.701L234.452 101.847L234.433 101.718L234.372 101.603L230.619 94.5548L229.729 87.0143C229.648 86.3287 230.138 85.7073 230.824 85.6264L239.966 84.5471C240.651 84.4662 241.273 84.9563 241.354 85.6419L242.244 93.1824L240.236 100.911ZM241.192 159.795C241.818 159.722 242.348 159.351 242.696 158.912C243.043 158.474 243.285 157.873 243.211 157.246L241.761 144.971C241.687 144.344 241.313 143.816 240.873 143.471C240.432 143.125 239.831 142.888 239.205 142.962C238.578 143.036 238.049 143.407 237.701 143.845C237.353 144.284 237.112 144.884 237.186 145.511L238.635 157.786C238.709 158.414 239.084 158.941 239.524 159.286C239.964 159.632 240.565 159.869 241.192 159.795ZM248.906 158.885C249.533 158.811 250.062 158.44 250.41 158.001C250.758 157.563 250.999 156.963 250.925 156.335L249.476 144.06C249.402 143.433 249.027 142.905 248.587 142.56C248.146 142.214 247.545 141.977 246.919 142.051C246.292 142.125 245.763 142.496 245.415 142.934C245.067 143.373 244.826 143.973 244.9 144.6L246.349 156.876C246.423 157.503 246.798 158.03 247.238 158.376C247.679 158.721 248.28 158.959 248.906 158.885Z" stroke="black" stroke-width="1.5"/>
<path d="M233.43 102.637C232.301 102.16 230.721 101.768 229.826 102.893C228.962 103.977 229.408 105.978 229.805 107.172C230.798 110.159 233.225 112.455 235.526 114.493C234.663 114.749 233.814 115.054 232.988 115.408C231.155 116.195 229.327 117.189 227.799 118.481C226.376 119.685 225.191 121.278 225.146 123.208C225.108 124.846 225.92 126.565 227.517 127.177C228.531 127.566 229.625 127.499 230.676 127.314C231.565 127.156 232.449 126.961 233.33 126.752C233.422 126.888 233.54 127.01 233.668 127.125C232.967 127.71 232.352 128.397 231.845 129.164C231.116 130.268 230.131 131.961 231.105 133.192C232.048 134.387 233.933 134.66 235.351 134.57C236.307 134.51 237.243 134.286 238.14 133.955C236.515 136.328 235.064 139.49 238.057 141.094C239.7 141.975 241.636 141.406 243.141 140.515C244.6 139.65 245.789 138.386 246.608 136.909C246.704 136.958 246.817 136.985 246.948 136.98C249.17 136.894 250.381 136.925 252.585 136.13C254.657 135.383 255.868 134.298 255.868 134.298C257.576 135.719 261.831 141.476 263.231 143.194C263.589 143.635 264.697 146.011 265.086 146.486C266.696 150.193 266.895 154.435 265.896 158.341C264.644 163.232 261.49 167.495 257.561 170.594C257.184 170.563 256.769 170.813 256.794 171.303C257.242 179.873 257.954 188.429 258.923 196.956C258.874 197.028 258.823 197.1 258.775 197.174C258.453 197.679 258.935 198.109 259.419 198.09C259.743 198.204 260.151 198.086 260.29 197.765C260.319 197.752 260.348 197.738 260.376 197.719C271.273 190.586 278.586 178.967 281.846 166.491C284.966 154.552 284.675 140.931 276.852 130.806C272.409 125.057 266.405 120.498 259.792 117.493C257.814 116.112 255.625 115.026 253.431 114.021C249.96 112.431 246.516 110.846 243.229 108.893C241.512 107.873 239.838 106.783 238.211 105.625C236.682 104.539 235.168 103.37 233.43 102.637Z" fill="#F9C9AF"/>
<path d="M229.126 102.994C228.792 103.407 229.077 104.234 229.694 104.111C231.833 103.687 233.851 104.499 235.713 105.487C237.932 106.665 240.083 107.985 242.258 109.242C246.809 111.871 251.095 115.024 255.911 117.13C269.926 123.258 278.57 135.177 281.049 144.533C282.461 149.862 282.462 155.284 281.55 160.699C281.014 163.877 280.347 167.07 279.467 170.171C278.546 173.418 277.094 176.345 275.154 179.101C271.176 184.752 266.732 190.302 261.358 194.693C259.747 186.898 259.848 178.846 258.315 171.031C258.151 170.195 256.925 170.254 256.967 171.145C257.186 175.805 257.376 180.466 257.632 185.124C257.862 189.317 258.271 193.527 259.577 197.54C259.803 198.235 260.733 198.03 260.871 197.458C261.295 197.615 261.887 197.238 261.799 196.666C262.651 196.131 263.414 195.459 264.157 194.764C265.507 193.502 266.866 192.245 268.193 190.959C269.27 189.915 270.145 188.766 270.969 187.531C271.207 187.648 271.499 187.626 271.71 187.347C273.204 185.379 274.754 183.442 276.106 181.372C277.418 179.364 278.534 177.243 279.455 175.027C279.553 174.788 279.515 174.569 279.402 174.4C279.615 173.917 279.815 173.425 279.996 172.923C281.131 169.769 282.449 166.512 283.098 163.228C284.23 157.512 284.452 151.99 283.23 146.257C282.149 141.182 280.571 136.734 277.639 132.455C274.299 127.582 269.69 122.214 264.58 119.246C264.368 119.123 264.171 119.131 264.011 119.217C259.658 116.703 254.543 114.784 250.19 112.269C245.599 109.617 241.063 106.821 236.389 104.319C235.79 103.998 235.169 103.695 234.53 103.436C234.54 103.302 234.497 103.159 234.38 103.019C233.053 101.43 230.458 101.34 229.126 102.994Z" fill="#EFB095"/>
<path d="M233.726 125.359C232.381 125.854 230.976 126.124 229.541 126.125C228.35 126.126 226.726 125.875 226.161 124.663C225.796 123.879 224.518 124.324 224.886 125.115C226.433 128.439 231.418 127.65 234.177 126.634C234.996 126.333 234.546 125.056 233.726 125.359Z" fill="#EFB095"/>
<path d="M238.088 132.427C237.12 133.008 235.993 133.141 234.886 133.209C233.891 133.27 232.496 133.281 232.229 132.067C232.041 131.218 230.769 131.678 230.953 132.519C231.292 134.062 232.915 134.583 234.314 134.584C235.869 134.586 237.498 134.357 238.847 133.548C239.596 133.096 238.832 131.98 238.088 132.427Z" fill="#EFB095"/>
<path d="M247.379 134.845C246.181 136.352 244.759 137.657 243.118 138.669C241.529 139.649 239.571 140.264 237.848 139.247C237.099 138.805 236.52 140.028 237.266 140.468C241.273 142.832 246.048 138.689 248.402 135.731C248.944 135.051 247.922 134.163 247.379 134.845Z" fill="#EFB095"/>
<path d="M258.319 200.716C263.967 196.523 269.126 191.628 273.384 186.017C277.517 180.572 280.806 174.457 282.74 167.886C284.436 162.121 285.066 156.012 284.498 150.025C283.935 144.093 282.165 138.263 279.1 133.137C277.557 130.557 275.613 128.225 273.536 126.059C271.435 123.867 269.154 121.821 266.681 120.053C266.135 119.662 265.578 119.289 265.011 118.931C264.384 118.534 263.893 119.58 264.514 119.972C266.93 121.5 269.138 123.371 271.197 125.347C273.347 127.412 275.358 129.647 277.06 132.101C280.352 136.849 282.324 142.497 283.121 148.196C283.934 154.002 283.563 159.945 282.159 165.631C280.581 172.022 277.638 178.054 273.855 183.426C269.418 189.729 263.849 195.177 257.671 199.762C257.075 200.203 257.723 201.159 258.319 200.716Z" fill="black"/>
<path d="M234.993 114.084C232.741 115.004 230.488 115.957 228.557 117.468C227.041 118.655 225.202 120.176 224.618 122.09C224.131 123.687 224.462 125.681 225.608 126.916C226.805 128.205 228.4 128.505 230.072 128.201C231.37 127.965 232.66 127.537 233.851 126.967C233.641 126.66 233.432 126.353 233.222 126.045C231.66 128.032 229.276 130.719 230.522 133.441C231.001 134.489 232.088 135.277 233.186 135.578C234.201 135.857 235.343 135.475 236.278 135.086C237.041 134.768 237.791 134.386 238.489 133.942C238.235 133.657 237.982 133.372 237.728 133.087C236.384 135.048 234.611 138.302 236.364 140.491C237.413 141.801 239.391 142.443 241.034 142.13C242.706 141.812 244.175 140.758 245.429 139.656C246.338 138.858 247.208 137.989 247.961 137.04C247.783 137.103 247.603 137.167 247.424 137.23C250.457 137.699 253.847 136.714 256.191 134.776C255.956 134.763 255.723 134.748 255.488 134.734C258.177 137.271 260.638 140.185 262.617 143.304C263.988 145.466 265.138 147.809 265.275 150.401C265.468 154.031 265.098 157.775 263.857 161.208C262.492 164.976 260.06 168.219 256.484 170.121C255.827 170.47 256.482 171.421 257.132 171.076C263.965 167.442 266.455 159.44 266.472 152.149C266.475 150.644 266.417 149.152 265.994 147.699C265.617 146.408 265.033 145.179 264.378 144.008C263.033 141.6 261.331 139.395 259.519 137.322C258.475 136.128 257.398 134.95 256.243 133.862C256.073 133.702 255.729 133.666 255.54 133.821C253.418 135.577 250.358 136.516 247.625 136.094C247.432 136.065 247.213 136.127 247.088 136.284C245.718 138.012 243.925 139.793 241.877 140.666C240.612 141.206 239.143 141.167 237.959 140.406C236.538 139.491 236.651 138.016 237.174 136.614C237.428 135.933 237.752 135.278 238.11 134.648C238.234 134.431 238.363 134.217 238.495 134.005C238.609 133.822 238.505 133.982 238.6 133.844C238.955 133.326 238.425 132.616 237.839 132.989C237.223 133.382 236.566 133.719 235.892 134C235.344 134.228 234.767 134.437 234.172 134.499C233.588 134.559 233.126 134.367 232.626 134.068C229.578 132.247 232.683 128.598 234.094 126.804C234.419 126.391 234.023 125.615 233.465 125.882C232.666 126.264 231.822 126.57 230.972 126.813C229.635 127.194 228.197 127.451 226.99 126.601C225.725 125.711 225.392 124.144 225.656 122.682C225.802 121.879 226.357 121.181 226.88 120.583C227.517 119.854 228.238 119.199 228.994 118.593C230.911 117.056 233.12 116.097 235.377 115.175C236.064 114.892 235.682 113.803 234.993 114.084Z" fill="black"/>
<path d="M235.874 114.184C233.972 112.788 232.354 111.06 231.115 109.05C230.122 107.441 228.316 104.265 230.27 102.668C231.751 101.457 233.779 103.11 234.976 103.967C235.953 104.665 236.98 105.294 238.014 105.902C243.954 109.399 250.204 112.371 256.333 115.518C259.089 116.933 261.886 118.325 264.513 119.972C265.14 120.366 265.633 119.321 265.01 118.93C262.541 117.383 259.92 116.067 257.331 114.734C253.961 112.998 250.57 111.3 247.201 109.562C244.142 107.985 241.078 106.397 238.123 104.631C237.047 103.988 236.029 103.288 235.008 102.564C233.502 101.497 231.328 100.401 229.622 101.713C227.27 103.519 228.527 106.76 229.672 108.858C231.001 111.293 232.883 113.416 235.119 115.057C235.713 115.494 236.473 114.624 235.874 114.184Z" fill="black"/>
<path d="M259.884 198.428C258.723 191.228 257.939 183.969 257.544 176.687C257.431 174.595 257.351 172.503 257.3 170.41C257.282 169.667 256.132 169.764 256.15 170.507C256.326 177.797 256.882 185.078 257.825 192.309C258.097 194.385 258.4 196.457 258.734 198.524C258.851 199.254 260.004 199.164 259.884 198.428Z" fill="black"/>
<path d="M277.173 140.553C277.96 140.408 278.826 140.763 279.119 141.553C279.41 142.34 278.982 143.181 278.288 143.576C277.642 143.944 278.295 144.897 278.936 144.531C280.07 143.886 280.666 142.413 280.205 141.169C279.747 139.926 278.369 139.164 277.074 139.404C276.352 139.536 276.441 140.688 277.173 140.553Z" fill="black"/>
<rect opacity="0.3" width="68.783" height="20.6656" rx="7.37258" transform="matrix(0.866025 0.5 -0.866025 0.5 96.74 158.824)" fill="#003E9B"/>
<path d="M80.948 13.0303C84.7902 10.3407 90.2582 10.7073 95.9878 14.0387L144.21 42.0769C147.386 43.9235 149.954 48.3831 149.954 52.0503L149.954 179.468C149.954 183.693 148.563 186.956 146.062 188.596L142.018 191.248C141.42 191.64 140.565 191.53 139.692 190.948L83.6567 153.591L78.6641 14.6291L80.948 13.0303Z" fill="#0C0D0E"/>
<path d="M77 18.7726C77 14.1836 80.2174 12.3185 84.1916 14.6036L137.792 45.4238C140.981 47.2572 143.569 51.7341 143.569 55.4159L143.569 186.893C143.569 191.482 140.351 193.347 136.377 191.062L82.7768 160.241C79.5882 158.408 77 153.931 77 150.249L77 18.7726Z" fill="#353A3F"/>
<rect width="70.7524" height="135.352" rx="6.65688" transform="matrix(0.866025 0.5 -2.20305e-08 1 79.9999 18)" fill="url(#paint1_linear)"/>
<path d="M118.622 101.147C118.668 100.734 118.623 100.656 118.246 100.439C115.853 99.0561 113.459 97.6742 111.065 96.2925C108.68 94.9159 106.296 93.5387 103.911 92.1624C103.475 91.9107 103.475 91.9119 103.475 92.4084L103.476 106.594C103.476 106.698 103.475 106.801 103.48 106.907C103.524 107.796 104.066 108.707 104.815 109.149C105.202 109.377 105.589 109.602 105.976 109.819C106.178 109.933 106.278 110.09 106.277 110.325C106.272 111.694 106.269 113.064 106.264 114.432C106.26 115.383 106.589 116.133 107.301 116.711C107.768 117.091 108.25 117.351 108.722 117.526C109.231 117.713 109.703 117.188 109.695 116.673C109.673 115.216 109.694 113.784 109.686 112.334C109.684 112.045 109.774 112.004 110.017 112.149C110.71 112.562 111.403 112.953 112.096 113.354C112.521 113.6 112.54 113.631 112.541 114.118C112.542 115.5 112.538 116.88 112.544 118.265C112.547 119.07 112.986 119.929 113.665 120.413C114.028 120.671 114.398 120.916 114.767 121.074C114.912 121.135 115.047 121.173 115.179 121.174C115.742 121.182 115.949 120.746 115.952 120.066C115.957 118.708 115.952 117.344 115.953 115.983C115.954 115.601 115.971 115.594 116.309 115.787C116.678 115.998 117.047 116.222 117.415 116.422C118.003 116.741 118.647 116.426 118.622 115.761C118.602 115.207 118.644 114.695 118.644 114.157C118.648 110.086 118.645 106.011 118.649 101.94C118.65 101.68 118.594 101.394 118.622 101.147ZM103.821 91.1125C106.223 92.5004 108.626 93.887 111.028 95.2744C113.439 96.6668 115.851 98.0598 118.262 99.4506C118.622 99.6581 118.65 99.6249 118.532 99.179C117.881 96.7144 116.746 94.4243 115.103 92.3158C114.844 91.9837 114.822 91.8435 114.991 91.6442C115.177 91.4221 115.365 91.2006 115.548 90.9736C115.722 90.7591 115.892 90.5395 116.058 90.3148C116.135 90.2088 116.132 90.0583 115.992 89.8668C115.848 89.6708 115.736 89.6758 115.64 89.7523C115.594 89.7893 115.559 89.8425 115.517 89.8869C115.14 90.3007 114.835 90.8101 114.442 91.2052C114.33 91.3182 114.232 91.2978 114.06 91.1104C113.814 90.8423 113.563 90.5753 113.303 90.3458C111.516 88.7624 109.749 87.7709 108.02 87.6011C107.859 87.5853 107.751 87.4919 107.658 87.2632C107.486 86.8351 107.303 86.4083 107.124 85.9811C106.916 85.4848 106.709 84.9884 106.498 84.4925C106.412 84.2892 106.292 84.1755 106.149 84.184C105.998 84.1928 105.995 84.3329 106.071 84.5362C106.118 84.6638 106.16 84.7922 106.213 84.9186C106.509 85.6222 106.808 86.3252 107.106 87.0283C107.289 87.4586 107.271 87.5814 107.005 87.6038C106.346 87.6594 105.748 87.8383 105.23 88.1863C104.461 88.7015 103.885 89.4579 103.524 90.487C103.399 90.8412 103.422 90.8821 103.821 91.1125ZM114.165 93.3631C114.547 93.5808 114.952 94.2659 114.964 94.7147C114.976 95.1736 114.575 95.428 114.181 95.2114C113.776 94.9885 113.384 94.321 113.372 93.834C113.361 93.3853 113.774 93.1405 114.165 93.3631ZM107.782 89.8101C108.161 90.0083 108.502 90.6642 108.5 91.1407C108.497 91.62 108.158 91.8488 107.77 91.6326C107.364 91.4068 106.985 90.7477 106.984 90.265C106.954 89.665 107.348 89.5829 107.782 89.8101ZM122.972 108.099C122.972 107.227 122.985 106.362 122.965 105.479C122.952 104.862 122.728 104.267 122.225 103.682C121.829 103.22 121.424 103.023 121.014 102.786C120.124 102.272 119.568 102.596 119.567 103.623C119.565 105.055 119.567 106.488 119.567 107.921C119.566 109.385 119.567 110.848 119.566 112.311C119.565 112.921 119.773 113.499 120.239 114.09C120.676 114.644 121.142 114.839 121.604 115.081C121.745 115.155 121.902 115.302 122.025 115.303C122.624 115.308 122.983 115.002 122.977 114.175C122.962 112.142 122.972 110.124 122.972 108.099ZM101.082 91.2771C100.875 91.159 100.669 91.0367 100.461 90.9191C99.5549 90.4043 98.9121 90.8603 99.0098 91.9621C99.0339 92.2351 99.0428 92.4984 99.0428 92.7579L99.0428 96.4667C99.0428 97.8275 99.0392 99.1863 99.0446 100.55C99.0468 101.143 99.2955 101.703 99.7383 102.26C100.194 102.834 100.683 103.052 101.159 103.277C101.963 103.66 102.453 103.279 102.447 102.346C102.444 101.783 102.406 101.202 102.409 100.643C102.421 98.3142 102.361 95.942 102.449 93.657C102.487 92.6785 101.669 91.613 101.082 91.2771Z" fill="#FFFFFE"/>
<g filter="url(#filter1_i)">
<path d="M96.2581 90.0902C96.2121 90.0109 96.1606 89.936 96.0985 89.8647L77.6729 66.6874C78.4321 65.1028 78.9475 63.3666 79.1635 61.5262C79.1749 61.4291 79.1863 61.332 79.1927 61.2343C79.1973 61.1955 79.2068 61.1572 79.2114 61.1184C79.2154 61.0844 79.2199 61.0455 79.219 61.011L79.2239 61.0115C79.9913 52.0735 73.3701 44.0602 64.2053 42.9847L64.2003 42.9841L64.1954 42.9835C61.552 42.6733 58.9824 42.9772 56.6265 43.7739L56.6259 43.7787C56.621 43.7781 56.6155 43.7824 56.6105 43.7818L56.6187 43.7975C56.4145 43.8671 56.2162 43.9718 56.0337 44.1129C55.149 44.7967 55.0014 46.0543 55.7037 46.9243L62.5645 55.4236L58.495 58.569L51.5394 49.9356C50.8371 49.0656 49.5526 48.9148 48.6679 49.5986C48.5021 49.7268 48.3587 49.8774 48.2434 50.046L48.2297 50.0345C46.7037 52.1986 45.6796 54.7563 45.3507 57.5581C44.2777 66.7015 50.9805 75.0049 60.3189 76.1009C62.8333 76.3959 65.282 76.1369 67.5422 75.4275L85.2172 97.6749L85.2116 97.6791C85.3504 97.8677 85.5002 98.0477 85.6611 98.2192L85.8454 98.4476C86.021 98.6651 86.2364 98.843 86.473 98.9692C87.4261 99.7161 88.5989 100.218 89.8983 100.37C93.6079 100.806 96.9641 98.2117 97.3904 94.5796C97.583 92.9383 97.1441 91.3657 96.2581 90.0902Z" fill="#3BD364"/>
</g>
<path d="M95.6095 90.4667L95.6248 90.493L95.6421 90.518C96.4289 91.6508 96.8157 93.0415 96.6455 94.4922C96.2692 97.6981 93.2988 100.014 89.9857 99.6256C88.825 99.4894 87.7816 99.0418 86.9356 98.3789L86.884 98.3384L86.826 98.3075C86.6799 98.2295 86.5425 98.117 86.429 97.9765L85.8454 98.4476L86.429 97.9765L86.2447 97.7481L86.2271 97.7264L86.2081 97.7061C86.1882 97.6849 86.1685 97.6636 86.149 97.6421L85.8044 97.2083L68.1294 74.9609L67.809 74.5576L67.3176 74.7119C65.1557 75.3904 62.8133 75.6384 60.4063 75.356C51.4644 74.3066 45.0726 66.3628 46.0956 57.6455C46.3757 55.259 47.1841 53.0588 48.3902 51.145L48.3967 51.1504L48.8625 50.4694C48.9316 50.3683 49.02 50.2744 49.1266 50.192C49.6884 49.7578 50.5096 49.8541 50.9556 50.4065C50.9557 50.4066 50.9558 50.4066 50.9558 50.4067L57.911 59.0396L58.3721 59.6119L58.9537 59.1624L63.0232 56.017L63.6292 55.5485L63.1481 54.9525L56.2873 46.4532C55.8491 45.9103 55.9403 45.133 56.4924 44.7063C56.5762 44.6414 56.6645 44.5893 56.7548 44.549L57.2834 44.611L57.3137 44.3532L57.6085 44.2527C59.6552 43.6661 61.8529 43.4637 64.108 43.7284L64.1129 43.729L64.1179 43.7295C72.6269 44.7281 78.8228 51.9666 78.5239 60.1742L78.4449 60.165L78.4687 61.0119L78.4671 61.026C78.4667 61.0283 78.4658 61.0331 78.4643 61.0416C78.4615 61.0569 78.4534 61.0997 78.4479 61.1469L78.4456 61.1659L78.4444 61.185C78.4394 61.2604 78.4304 61.3386 78.4186 61.4388C78.2124 63.1958 77.7205 64.8522 76.9966 66.3634L76.7938 66.7867L77.0859 67.1542L95.5115 90.3314L95.5218 90.3445L95.5328 90.357C95.5581 90.3862 95.5828 90.4208 95.6095 90.4667ZM78.4693 61.032C78.4692 61.0318 78.4692 61.0315 78.4692 61.0313L78.4693 61.032Z" stroke="black" stroke-width="1.5"/>
<path d="M77.9625 56.0676C77.8555 56.2815 77.8844 56.4931 77.9838 56.6605C74.4054 63.2838 70.5858 69.7691 66.5479 76.1195C64.314 78.6671 62.2584 81.3706 61.0481 84.5727C61.0197 84.6468 61.0078 84.7175 61.008 84.7842C60.3636 85.9701 59.8254 87.2043 59.4774 88.5418C58.9393 90.6081 58.6833 92.768 58.5951 94.8987C58.4251 99.0289 59.0143 103.209 60.5506 107.057C62.2519 111.32 65.155 115.125 68.9622 117.702C69.3273 118.205 69.842 118.594 70.4053 118.91C71.1228 119.312 71.8722 119.663 72.624 120.008C72.682 120.052 72.7394 120.097 72.7973 120.141C73.663 120.803 74.8401 122.064 75.9782 121.249C76.1482 121.128 76.1946 120.885 76.1634 120.693C76.1156 120.398 76.0549 120.106 75.9808 119.819C76.3609 116.485 76.741 113.151 77.1204 109.817C77.1739 109.349 76.7359 109.152 76.3807 109.253C76.1032 108.558 75.4374 108.025 74.9865 107.438C74.0209 106.182 73.2628 104.771 72.7116 103.287C71.5985 100.296 71.3768 96.9064 72.2296 93.8218C73.0906 90.7046 75.0384 87.7757 77.8018 86.0379C79.2458 85.1302 80.8073 84.6597 82.4857 84.4133C84.2708 84.1512 86.1179 83.9976 87.726 83.1024C89.1818 82.2927 90.7883 80.5643 90.0797 78.7658C89.5528 77.43 88.3229 76.9125 87.0213 76.72C87.7073 76.2866 88.3897 75.846 89.0324 75.3627C89.916 74.6986 90.6661 73.7032 90.5191 72.5369C90.2745 70.5945 87.9435 70.2442 86.0685 70.3843C87.0829 69.6585 88.3058 69.1895 88.8419 67.9658C89.3427 66.8248 88.8166 65.6275 87.8421 64.9398C86.7867 64.1942 85.4401 64.2517 84.2339 64.5176C82.9123 64.809 81.6043 65.1901 80.2976 65.553C81.721 63.7556 82.4195 61.4865 82.2161 59.1823C82.1137 58.0203 81.8122 56.5982 80.9235 55.7706C80.0887 54.9914 78.5333 54.9249 77.9625 56.0676Z" fill="#F9C9AF"/>
<path d="M89.3937 71.8239C88.8505 73.7347 87.327 75.0575 85.8709 76.3045C85.3006 76.7936 86.0711 77.6673 86.6403 77.1799C86.8713 76.9818 87.1038 76.7812 87.3333 76.5762C87.485 76.6912 87.6908 76.7345 87.9133 76.6308C89.7243 75.7889 90.7485 73.8498 90.5184 71.8837C90.4499 71.2991 89.5465 71.2845 89.3937 71.8239Z" fill="#EFB095"/>
<path d="M87.7878 64.9174C87.1458 65.0171 87.239 65.8831 87.7536 66.041C87.8769 66.2681 87.8565 66.8396 87.847 67.0081C87.8263 67.3607 87.7402 67.7096 87.5984 68.0327C87.2884 68.7413 86.7335 69.2702 86.0179 69.5547C85.3194 69.8314 85.8441 70.8733 86.5366 70.5986C87.7178 70.1296 88.6016 69.0447 88.8958 67.8146C89.0951 66.9812 89.1626 64.7026 87.7878 64.9174Z" fill="#EFB095"/>
<path d="M79.7332 55.1565C79.1632 55.0467 78.7624 55.609 79.1172 56.096C80.9653 58.6369 81.2088 62.2108 79.7252 64.9792C79.6197 65.1763 79.6339 65.3723 79.7145 65.5321C79.6955 66.0689 80.6054 66.2839 80.8751 65.6785C81.7016 63.8179 82.1519 61.7878 82.1589 59.75C82.1647 57.9825 81.844 55.5634 79.7332 55.1565Z" fill="#EFB095"/>
<path d="M89.2749 78.3962C88.5513 81.4216 85.1846 82.4405 82.5218 83.0531C81.1197 83.3749 79.7022 83.6747 78.3716 84.2336C77.0152 84.8029 75.8315 85.6816 74.8536 86.776C73.8453 87.904 73.0361 89.178 72.3088 90.5011C71.593 91.8031 70.9341 93.1507 70.4662 94.5641C69.5795 97.2436 69.583 99.9778 70.5653 102.626C71.6219 105.473 73.5528 107.915 75.4358 110.258C75.4455 110.27 75.4558 110.281 75.4667 110.292C75.4572 110.43 75.447 110.567 75.437 110.705C75.4035 111.155 75.3686 111.606 75.3321 112.055C75.2488 113.067 75.1581 114.077 75.058 115.087C74.8622 117.07 74.6319 119.049 74.3721 121.025C74.3184 121.433 74.6453 121.634 74.9669 121.61C74.9792 122.315 76.0952 122.36 76.1309 121.624C76.3029 118.046 76.5657 114.472 76.9184 110.906C76.9448 110.639 76.8127 110.46 76.6284 110.375C76.6299 110.355 76.6317 110.336 76.6332 110.315C76.6619 109.918 76.79 109.405 76.6936 109.021C76.5688 108.524 75.996 108.477 75.704 108.73C74.2816 106.938 72.908 105.084 71.9691 102.989C70.8274 100.441 70.6708 97.7713 71.5138 95.1059C71.9518 93.7217 72.5829 92.4093 73.2816 91.1389C74.002 89.828 74.7969 88.5232 75.8256 87.4276C76.8329 86.3536 78.03 85.5705 79.4148 85.0721C80.7394 84.5949 82.1377 84.3515 83.5023 84.0182C86.3484 83.3236 89.632 81.8984 90.385 78.752C90.5579 78.0296 89.4502 77.6647 89.2749 78.3962Z" fill="#EFB095"/>
<path d="M76.4366 121.475C70.1609 119.682 65.0555 115.05 62.0202 109.345C60.4874 106.463 59.4669 103.32 59.0489 100.081C58.5724 96.3876 58.9631 92.6043 59.9757 89.0312C61.1157 85.0081 63.0505 81.2468 65.5407 77.895C65.9228 77.3811 65.0904 76.8376 64.7094 77.3498C60.1274 83.5183 57.3214 91.2662 57.943 99.01C58.4812 105.713 61.5924 112.25 66.4952 116.86C69.23 119.432 72.5141 121.389 76.1325 122.423C76.7446 122.597 77.0542 121.652 76.4366 121.475Z" fill="black"/>
<path d="M77.1522 108.869C74.501 106.737 72.7355 103.602 72.1766 100.255C71.5808 96.6859 72.5182 93.028 74.6193 90.0974C75.8487 88.382 77.4558 86.9607 79.3163 85.9635C79.8804 85.6616 79.4388 84.7705 78.8741 85.0732C75.3591 86.9566 72.6825 90.2718 71.5699 94.1026C70.5242 97.7026 70.9801 101.614 72.7015 104.934C73.6592 106.78 74.9885 108.397 76.6085 109.7C77.1054 110.101 77.6477 109.266 77.1522 108.869Z" fill="black"/>
<path d="M65.5406 77.895C67.299 75.1534 69.1871 72.5005 71.0095 69.8008C71.9267 68.4419 72.8253 67.0696 73.6843 65.6725C74.3868 64.5305 75.128 63.3819 75.698 62.1663C76.465 60.5305 77.1253 58.8473 77.9767 57.2515C78.2939 56.657 78.6408 55.9739 79.127 55.5461C79.0522 55.6112 79.1985 55.524 79.1346 55.538C79.079 55.5503 79.3282 55.5401 79.371 55.542C79.7296 55.5572 80.0845 55.6342 80.4067 55.7955C81.0253 56.1048 81.4563 56.6786 81.7337 57.298C82.3133 58.5934 82.1295 60.0268 81.8426 61.371C81.5686 62.6572 81.2003 63.9932 80.5855 65.1629C80.29 65.724 81.119 66.2747 81.4169 65.708C82.0121 64.5754 82.4029 63.3302 82.6962 62.0888C82.9791 60.8941 83.2312 59.6067 83.0616 58.3768C82.863 56.9282 82.0817 55.4637 80.7041 54.8433C80.1811 54.6074 79.4403 54.4319 78.8715 54.5832C78.5517 54.6684 78.3143 54.9252 78.1097 55.1703C77.5367 55.861 77.1315 56.702 76.7364 57.5022C76.2506 58.4878 75.8028 59.49 75.3599 60.4954C74.2901 62.9229 72.836 65.2185 71.346 67.4964C69.1783 70.8114 66.8461 74.0148 64.7076 77.3488C64.3637 77.8877 65.1945 78.4337 65.5406 77.895Z" fill="black"/>
<path d="M80.841 66.0697C82.7641 65.1147 85.2819 63.8602 87.329 65.1929C88.0714 65.6761 88.7162 66.4877 88.6582 67.4173C88.5717 68.7967 87.1356 69.58 86.0109 70.0551C86.1588 70.3518 86.3066 70.6485 86.4531 70.9454C87.2166 70.5533 88.2262 70.6743 88.9679 71.0679C89.721 71.4678 90.173 72.3431 90.1466 73.1901C90.1169 74.1312 89.4395 74.8271 88.7154 75.3402C87.9127 75.91 86.9467 76.3643 85.9655 76.4937C85.4113 76.5666 85.4746 77.4926 86.0414 77.4767C87.0766 77.4481 88.262 77.5275 89.1706 78.0745C90.1219 78.6472 90.1414 79.6907 89.722 80.6295C88.7729 82.7569 85.9086 83.5536 83.8515 84.0094C82.0449 84.4095 80.1967 84.61 78.3512 84.7195C77.7193 84.7568 77.6609 85.7505 78.3006 85.7122C81.5972 85.5164 85.2849 85.1846 88.2061 83.4944C89.254 82.888 90.1841 82.0642 90.6699 80.9335C91.1496 79.8156 91.1417 78.448 90.1836 77.5903C89.1144 76.6337 87.4709 76.4441 86.0931 76.4822C86.1182 76.8102 86.1433 77.1381 86.169 77.4652C87.4066 77.3019 88.6302 76.6741 89.6055 75.9119C90.5503 75.1726 91.2315 74.1047 91.1294 72.868C91.0343 71.7167 90.3851 70.6598 89.3431 70.1477C88.3328 69.6505 87.0362 69.5267 86.0112 70.0529C85.4363 70.3477 85.8687 71.1912 86.4533 70.9432C87.871 70.344 89.3783 69.3505 89.6233 67.7042C89.8006 66.5127 89.1686 65.397 88.2734 64.6555C85.8895 62.6834 82.8076 63.9806 80.3982 65.1766C79.8247 65.4639 80.2682 66.3539 80.841 66.0697Z" fill="black"/>
<path d="M76.6463 121.742C77.2489 117.641 77.5131 113.498 77.4332 109.354C77.4209 108.718 76.4281 108.66 76.4404 109.303C76.5195 113.447 76.2561 117.591 75.6535 121.692C75.5602 122.324 76.5532 122.372 76.6463 121.742Z" fill="black"/>
<path d="M60.4882 108.128C61.5052 109.155 63.024 110.03 64.4634 109.348C65.0431 109.073 64.599 108.184 64.0212 108.458C63.0264 108.929 61.9184 108.162 61.2348 107.471C60.7871 107.017 60.038 107.672 60.4882 108.128Z" fill="black"/>
<path fill-rule="evenodd" clip-rule="evenodd" d="M119.599 163.58L112.954 167.171C112.061 167.687 113.84 167.883 114.354 168.773L137.459 208.793C137.827 209.43 138.644 209.649 139.281 209.281L144.314 206.382L144.498 206.276C145.304 205.441 145.62 205.112 145.618 203.839L145.618 181.889C145.618 179.233 143.467 175.841 140.813 174.309L123.091 164.078C121.712 163.279 120.634 162.983 119.599 163.58Z" fill="#0080FF" stroke="black"/>
<path fill-rule="evenodd" clip-rule="evenodd" d="M139.389 184.917L139.388 206.867C139.388 209.52 137.234 210.428 134.583 208.897L116.862 198.666C114.207 197.134 112.056 193.739 112.056 191.086L112.057 169.136C112.055 166.484 114.207 165.573 116.862 167.106L134.583 177.337C137.235 178.871 139.385 182.262 139.389 184.917Z" fill="#17C9D4"/>
<path d="M139.389 184.917L139.388 206.867C139.388 209.52 137.234 210.428 134.583 208.897L116.862 198.666C114.207 197.134 112.056 193.739 112.056 191.086L112.057 169.136C112.055 166.484 114.207 165.573 116.862 167.106L134.583 177.337C137.235 178.871 139.385 182.262 139.389 184.917" stroke="black"/>
<path d="M126.162 192.883C125.86 192.709 125.599 192.441 125.378 192.081C125.176 191.733 125.056 191.327 125.015 190.862L123.899 176.663L123.869 176.297C123.869 175.577 124.08 175.13 124.503 174.956C124.945 174.77 125.498 174.869 126.162 175.252C126.826 175.635 127.369 176.17 127.792 176.855C128.234 177.528 128.455 178.225 128.455 178.945L128.425 179.311L127.309 192.186C127.269 192.604 127.138 192.865 126.917 192.97C126.715 193.086 126.464 193.057 126.162 192.883ZM126.162 200.2C125.518 199.828 124.985 199.277 124.563 198.545C124.14 197.79 123.929 197.041 123.929 196.298C123.929 195.554 124.14 195.061 124.563 194.817C124.985 194.55 125.518 194.602 126.162 194.973C126.806 195.345 127.339 195.908 127.761 196.663C128.184 197.395 128.395 198.133 128.395 198.876C128.395 199.619 128.184 200.124 127.761 200.392C127.339 200.636 126.806 200.572 126.162 200.2Z" fill="#FFFFFE"/>
<path d="M50.4147 134.391L50.4358 134.381L50.4559 134.37C51.0039 134.053 51.6131 134.15 52.6551 134.754L52.6557 134.754L66.3559 142.664L66.3559 142.664C67.3004 143.209 68.1738 144.098 68.8107 145.103C69.4502 146.111 69.821 147.188 69.8213 148.091L69.8209 165.06L69.8209 165.061C69.8215 165.478 69.7426 165.715 69.6235 165.911C69.5011 166.114 69.3295 166.291 69.058 166.571C69.0247 166.606 68.9898 166.642 68.9533 166.679C68.9233 166.711 68.8409 166.775 68.6822 166.87C68.5322 166.96 68.3416 167.06 68.1205 167.167C67.679 167.381 67.1408 167.61 66.6147 167.823C66.09 168.034 65.5836 168.226 65.208 168.366C65.0204 168.435 64.8657 168.491 64.7581 168.53L64.634 168.575L64.6017 168.586L64.5936 168.589L64.5917 168.59L64.5912 168.59L64.5911 168.59L64.5476 168.605L64.5077 168.629C64.4867 168.641 64.4691 168.649 64.4549 168.655L64.4465 168.641L46.5837 137.701C46.464 137.494 46.307 137.292 46.1728 137.121C46.1595 137.104 46.1465 137.087 46.1337 137.071C46.0073 136.91 45.9029 136.778 45.8241 136.654C45.7905 136.602 45.7689 136.562 45.7549 136.532L50.4147 134.391Z" fill="#0080FF" stroke="black"/>
<mask id="path-42-inside-1" fill="white">
<path fill-rule="evenodd" clip-rule="evenodd" d="M65.68 150.234L65.6796 167.203C65.6791 169.254 64.0143 169.956 61.965 168.772L48.2649 160.863C46.2124 159.678 44.549 157.054 44.5494 155.003L44.5498 138.033C44.5483 135.983 46.2119 135.279 48.2644 136.464L61.9645 144.373C64.015 145.559 65.6772 148.181 65.68 150.234Z"/>
</mask>
<path fill-rule="evenodd" clip-rule="evenodd" d="M65.68 150.234L65.6796 167.203C65.6791 169.254 64.0143 169.956 61.965 168.772L48.2649 160.863C46.2124 159.678 44.549 157.054 44.5494 155.003L44.5498 138.033C44.5483 135.983 46.2119 135.279 48.2644 136.464L61.9645 144.373C64.015 145.559 65.6772 148.181 65.68 150.234Z" fill="#17C9D4"/>
<path d="M65.6796 167.203L66.6796 167.203L66.6796 167.203L65.6796 167.203ZM61.965 168.772L62.4653 167.907L62.465 167.906L61.965 168.772ZM48.2649 160.863L48.7649 159.997L48.7648 159.997L48.2649 160.863ZM44.5494 155.003L45.5494 155.003L45.5494 155.003L44.5494 155.003ZM44.5498 138.033L45.5498 138.033L45.5498 138.033L44.5498 138.033ZM48.2644 136.464L48.7644 135.598L48.7643 135.598L48.2644 136.464ZM61.9645 144.373L62.4652 143.508L62.4645 143.507L61.9645 144.373ZM64.68 150.234L64.6796 167.203L66.6796 167.203L66.68 150.234L64.68 150.234ZM64.6796 167.203C64.6794 167.953 64.3996 168.196 64.2016 168.28C63.9312 168.394 63.3466 168.416 62.4653 167.907L61.4648 169.638C62.6327 170.313 63.9051 170.576 64.9796 170.122C66.1265 169.638 66.6793 168.504 66.6796 167.203L64.6796 167.203ZM62.465 167.906L48.7649 159.997L47.7649 161.729L61.465 169.638L62.465 167.906ZM48.7648 159.997C47.9022 159.499 47.0837 158.672 46.4819 157.722C45.8749 156.765 45.5493 155.781 45.5494 155.003L43.5494 155.003C43.5492 156.276 44.0551 157.63 44.7927 158.793C45.5356 159.965 46.5751 161.042 47.7649 161.729L48.7648 159.997ZM45.5494 155.003L45.5498 138.033L43.5498 138.033L43.5494 155.003L45.5494 155.003ZM45.5498 138.033C45.5493 137.283 45.8286 137.04 46.0262 136.957C46.2963 136.842 46.8813 136.82 47.7644 137.33L48.7643 135.598C47.595 134.923 46.3219 134.66 45.2474 135.114C44.1005 135.599 43.5488 136.734 43.5498 138.034L45.5498 138.033ZM47.7644 137.33L61.4645 145.239L62.4645 143.507L48.7644 135.598L47.7644 137.33ZM61.4638 145.239C62.3258 145.737 63.1437 146.565 63.7456 147.514C64.3525 148.471 64.6789 149.455 64.68 150.235L66.68 150.232C66.6782 148.959 66.1722 147.606 65.4347 146.443C64.6921 145.272 63.6537 144.195 62.4652 143.508L61.4638 145.239Z" fill="black" mask="url(#path-42-inside-1)"/>
<path d="M52.0126 153.604C51.9355 153.559 51.8591 153.533 51.7879 153.526C51.7166 153.519 51.6519 153.531 51.5975 153.563L50.423 154.241C50.367 154.271 50.3222 154.32 50.2914 154.385C50.2607 154.45 50.2445 154.53 50.2438 154.619C50.2431 154.709 50.258 154.807 50.2875 154.907C50.317 155.008 50.3606 155.109 50.4158 155.204C50.4709 155.3 50.5365 155.388 50.6086 155.464C50.6808 155.539 50.7581 155.601 50.8361 155.645C50.9141 155.69 50.9911 155.715 51.0628 155.721C51.1344 155.727 51.1992 155.713 51.2534 155.679L52.4278 155.001C52.5099 154.954 52.5658 154.865 52.5885 154.747C52.6111 154.628 52.5995 154.485 52.555 154.336C52.5106 154.186 52.4354 154.037 52.3388 153.907C52.2423 153.776 52.1288 153.671 52.0126 153.604ZM51.4254 150.553C51.4254 150.373 51.3636 150.165 51.2534 149.974C51.1433 149.783 50.9939 149.626 50.8382 149.536L49.2723 148.632C49.1165 148.542 48.9672 148.527 48.8571 148.59C48.7469 148.654 48.6851 148.791 48.6851 148.971C48.6851 149.15 48.7469 149.359 48.8571 149.549C48.9672 149.74 49.1165 149.898 49.2723 149.988L50.8382 150.892C50.9939 150.982 51.1433 150.996 51.2534 150.933C51.3636 150.869 51.4254 150.733 51.4254 150.553ZM51.2534 145.228C51.1992 145.132 51.1344 145.042 51.0628 144.966C50.9911 144.889 50.9141 144.825 50.8361 144.78C50.7581 144.734 50.6808 144.706 50.6086 144.699C50.5365 144.691 50.4709 144.704 50.4158 144.736C50.3606 144.767 50.317 144.818 50.2875 144.884C50.258 144.951 50.2431 145.031 50.2438 145.122C50.2445 145.212 50.2607 145.31 50.2914 145.411C50.3222 145.511 50.367 145.612 50.423 145.707L51.5975 147.741C51.6516 147.837 51.7164 147.926 51.7881 148.003C51.8597 148.08 51.9368 148.143 52.0148 148.189C52.0927 148.235 52.1701 148.262 52.2422 148.27C52.3144 148.277 52.38 148.265 52.4351 148.233C52.4902 148.201 52.5338 148.151 52.5634 148.085C52.5929 148.018 52.6077 147.938 52.6071 147.847C52.6064 147.757 52.5902 147.658 52.5594 147.558C52.5286 147.457 52.4839 147.357 52.4278 147.262L51.2534 145.228ZM57.8849 151.57C57.962 151.614 58.0384 151.641 58.1096 151.648C58.1809 151.655 58.2456 151.643 58.3 151.611L59.4745 150.933C59.5305 150.903 59.5753 150.854 59.6061 150.789C59.6368 150.724 59.653 150.644 59.6537 150.554C59.6544 150.465 59.6395 150.367 59.61 150.267C59.5805 150.166 59.5369 150.065 59.4817 149.97C59.4266 149.874 59.361 149.786 59.2889 149.71C59.2167 149.635 59.1394 149.573 59.0614 149.529C58.9834 149.484 58.9064 149.459 58.8347 149.453C58.7631 149.447 58.6983 149.461 58.6441 149.495L57.4697 150.173C57.3876 150.22 57.3317 150.309 57.309 150.427C57.2864 150.546 57.298 150.689 57.3425 150.838C57.3869 150.988 57.4621 151.137 57.5587 151.267C57.6552 151.397 57.7687 151.503 57.8849 151.57ZM58.3 157.433C58.2459 157.337 58.1811 157.248 58.1094 157.171C58.0378 157.094 57.9607 157.031 57.8827 156.985C57.8048 156.939 57.7274 156.912 57.6553 156.904C57.5831 156.896 57.5175 156.909 57.4624 156.941C57.4073 156.973 57.3637 157.023 57.3341 157.089C57.3046 157.156 57.2898 157.236 57.2904 157.327C57.2911 157.417 57.3073 157.516 57.3381 157.616C57.3689 157.717 57.4136 157.817 57.4697 157.912L58.6441 159.946C58.6983 160.042 58.7631 160.131 58.8347 160.208C58.9064 160.285 58.9834 160.348 59.0614 160.394C59.1394 160.44 59.2167 160.468 59.2889 160.475C59.361 160.483 59.4266 160.47 59.4817 160.438C59.5369 160.406 59.5805 160.356 59.61 160.29C59.6395 160.223 59.6544 160.143 59.6537 160.052C59.653 159.962 59.6368 159.863 59.6061 159.763C59.5753 159.663 59.5305 159.562 59.4745 159.467L58.3 157.433ZM54.9487 156.655C54.793 156.565 54.6436 156.551 54.5335 156.614C54.4234 156.678 54.3615 156.815 54.3615 156.994L54.3615 158.803C54.3615 158.982 54.4234 159.191 54.5335 159.381C54.6436 159.572 54.793 159.73 54.9487 159.82C55.1045 159.91 55.2539 159.924 55.364 159.861C55.4741 159.797 55.536 159.66 55.536 159.481L55.536 157.672C55.536 157.493 55.4741 157.284 55.364 157.094C55.2539 156.903 55.1045 156.745 54.9487 156.655ZM60.6252 155.186L59.0593 154.282C58.9036 154.192 58.7542 154.177 58.6441 154.241C58.5339 154.305 58.4721 154.441 58.4721 154.621C58.4721 154.801 58.5339 155.009 58.6441 155.2C58.7542 155.391 58.9036 155.548 59.0593 155.638L60.6252 156.542C60.781 156.632 60.9303 156.647 61.0404 156.583C61.1506 156.52 61.2124 156.383 61.2124 156.203C61.2124 156.023 61.1506 155.815 61.0404 155.625C60.9303 155.434 60.781 155.276 60.6252 155.186ZM54.9488 145.354C54.793 145.264 54.6436 145.25 54.5335 145.313C54.4234 145.377 54.3615 145.513 54.3615 145.693L54.3615 147.501C54.3615 147.681 54.4234 147.889 54.5335 148.08C54.6436 148.271 54.793 148.429 54.9488 148.519C55.1045 148.608 55.2539 148.623 55.364 148.56C55.4741 148.496 55.536 148.359 55.536 148.18L55.536 146.371C55.536 146.192 55.4741 145.983 55.364 145.793C55.2539 145.602 55.1045 145.444 54.9488 145.354V145.354Z" fill="#FFFFFE" stroke="white"/>
<path d="M81.5951 146.559L81.6163 146.55L81.6364 146.538C82.3417 146.131 83.1151 146.273 84.367 146.998L84.3676 146.998L100.765 156.465L100.765 156.465C101.911 157.127 102.967 158.203 103.737 159.416C104.508 160.634 104.961 161.94 104.962 163.046L104.961 183.355L104.961 183.356C104.962 183.87 104.864 184.172 104.711 184.425C104.558 184.677 104.344 184.898 104.021 185.231C103.981 185.273 103.939 185.316 103.895 185.362C103.85 185.409 103.742 185.492 103.55 185.606C103.367 185.715 103.136 185.837 102.87 185.966C102.339 186.223 101.693 186.499 101.062 186.753C100.433 187.007 99.826 187.237 99.3759 187.404C99.151 187.487 98.9656 187.555 98.8366 187.601C98.7722 187.625 98.7218 187.643 98.6877 187.655L98.6489 187.669L98.6392 187.672L98.6368 187.673L98.6363 187.673L98.6361 187.673L98.8027 188.144L98.6361 187.673L98.5926 187.688L98.5527 187.711C98.4667 187.761 98.4145 187.771 98.3928 187.773L98.345 187.69L76.9658 150.66C76.8265 150.419 76.6429 150.182 76.4819 149.977C76.4658 149.956 76.4501 149.936 76.4345 149.917C76.2842 149.726 76.156 149.563 76.059 149.411C76.007 149.329 75.9725 149.264 75.9518 149.212C75.9435 149.191 75.9384 149.175 75.9353 149.163C75.9397 149.16 75.945 149.157 75.9516 149.153L81.5951 146.559ZM75.9186 149.176C75.9177 149.178 75.9172 149.178 75.9171 149.178L75.9186 149.176Z" fill="#0080FF" stroke="black"/>
<mask id="path-46-inside-2" fill="white">
<path fill-rule="evenodd" clip-rule="evenodd" d="M99.9065 165.61L99.906 185.92C99.9055 188.375 97.9129 189.216 95.4602 187.799L79.0632 178.332C76.6067 176.914 74.6158 173.774 74.6163 171.318L74.6168 151.009C74.6149 148.555 76.6061 147.712 79.0626 149.13L95.4597 158.596C97.9137 160.016 99.9032 163.154 99.9065 165.61Z"/>
</mask>
<path fill-rule="evenodd" clip-rule="evenodd" d="M99.9065 165.61L99.906 185.92C99.9055 188.375 97.9129 189.216 95.4602 187.799L79.0632 178.332C76.6067 176.914 74.6158 173.774 74.6163 171.318L74.6168 151.009C74.6149 148.555 76.6061 147.712 79.0626 149.13L95.4597 158.596C97.9137 160.016 99.9032 163.154 99.9065 165.61Z" fill="#17C9D4"/>
<path d="M99.906 185.92L100.906 185.92L100.906 185.92L99.906 185.92ZM95.4602 187.799L95.9605 186.933L95.9602 186.933L95.4602 187.799ZM79.0632 178.332L79.5632 177.466L79.5631 177.466L79.0632 178.332ZM74.6163 171.318L75.6163 171.318L75.6163 171.318L74.6163 171.318ZM74.6168 151.009L75.6168 151.009L75.6168 151.008L74.6168 151.009ZM79.0626 149.13L79.5626 148.264L79.5625 148.264L79.0626 149.13ZM95.4597 158.596L95.9603 157.731L95.9596 157.73L95.4597 158.596ZM98.9065 165.61L98.906 185.92L100.906 185.92L100.906 165.61L98.9065 165.61ZM98.906 185.92C98.9058 186.872 98.544 187.251 98.2136 187.39C97.8109 187.56 97.0435 187.558 95.9605 186.933L94.96 188.664C96.3297 189.456 97.7848 189.742 98.9917 189.233C100.271 188.692 100.906 187.423 100.906 185.92L98.906 185.92ZM95.9602 186.933L79.5632 177.466L78.5632 179.198L94.9603 188.665L95.9602 186.933ZM79.5631 177.466C78.4985 176.852 77.4972 175.837 76.7629 174.679C76.0236 173.513 75.6161 172.299 75.6163 171.318L73.6163 171.318C73.616 172.793 74.2037 174.377 75.0738 175.75C75.949 177.13 77.1713 178.395 78.5632 179.198L79.5631 177.466ZM75.6163 171.318L75.6168 151.009L73.6168 151.009L73.6163 171.318L75.6163 171.318ZM75.6168 151.008C75.6161 150.056 75.9773 149.678 76.3072 149.538C76.7096 149.368 77.4775 149.37 78.5626 149.996L79.5625 148.264C78.1911 147.472 76.7352 147.186 75.5284 147.696C74.2491 148.237 73.6157 149.507 73.6168 151.009L75.6168 151.008ZM78.5626 149.996L94.9597 159.462L95.9596 157.73L79.5626 148.264L78.5626 149.996ZM94.959 159.462C96.0228 160.077 97.0234 161.092 97.7575 162.25C98.4968 163.416 98.9052 164.63 98.9065 165.612L100.906 165.609C100.905 164.134 100.316 162.551 99.4467 161.179C98.5718 159.799 97.3506 158.535 95.9603 157.731L94.959 159.462Z" fill="black" mask="url(#path-46-inside-2)"/>
<circle r="7.13033" transform="matrix(0.866025 0.5 -2.20305e-08 1 86.5468 168.637)" stroke="white" stroke-width="3"/>
<path d="M91.4997 166.959L81.9495 170.075" stroke="white" stroke-width="3"/>
<path d="M161.735 175.779L161.756 175.769L161.777 175.758C162.849 175.138 164.005 175.385 165.746 176.394L165.747 176.394L188.431 189.49L188.681 189.057L188.431 189.49C190.048 190.424 191.531 191.937 192.608 193.637C193.689 195.341 194.332 197.184 194.333 198.761L194.332 226.857L194.332 226.858C194.333 227.598 194.191 228.051 193.958 228.436C193.734 228.805 193.422 229.127 192.98 229.584C192.923 229.642 192.864 229.703 192.803 229.766C192.722 229.85 192.555 229.975 192.287 230.136C192.027 230.291 191.702 230.461 191.332 230.641C190.591 231 189.692 231.383 188.818 231.735C187.945 232.087 187.104 232.406 186.48 232.638C186.168 232.753 185.911 232.847 185.733 232.911C185.643 232.944 185.573 232.969 185.526 232.986L185.472 233.005L185.458 233.01L185.455 233.011L185.454 233.011L185.454 233.011L185.621 233.483L185.454 233.011L185.411 233.026L185.371 233.05C185.223 233.135 185.12 233.157 185.058 233.16C184.999 233.163 184.96 233.15 184.933 233.136C184.915 233.126 184.9 233.115 184.888 233.103L184.888 233.066L184.821 232.95L155.245 181.722C155.06 181.402 154.815 181.084 154.591 180.799C154.569 180.771 154.546 180.743 154.524 180.715C154.318 180.453 154.135 180.22 153.995 180.001C153.833 179.748 153.787 179.597 153.787 179.52C153.787 179.519 153.787 179.518 153.787 179.517C153.786 179.502 153.782 179.454 153.918 179.371L161.735 175.779Z" fill="#0080FF" stroke="black"/>
<mask id="path-51-inside-3" fill="white">
<path fill-rule="evenodd" clip-rule="evenodd" d="M187.148 202.308L187.147 230.405C187.146 233.802 184.39 234.964 180.997 233.004L158.313 219.908C154.914 217.946 152.16 213.602 152.161 210.205L152.162 182.108C152.159 178.713 154.914 177.547 158.312 179.509L180.996 192.605C184.391 194.569 187.143 198.91 187.148 202.308Z"/>
</mask>
<path fill-rule="evenodd" clip-rule="evenodd" d="M187.148 202.308L187.147 230.405C187.146 233.802 184.39 234.964 180.997 233.004L158.313 219.908C154.914 217.946 152.16 213.602 152.161 210.205L152.162 182.108C152.159 178.713 154.914 177.547 158.312 179.509L180.996 192.605C184.391 194.569 187.143 198.91 187.148 202.308Z" fill="#17C9D4"/>
<path d="M187.147 230.405L188.147 230.405L188.147 230.405L187.147 230.405ZM180.997 233.004L181.497 232.138L181.497 232.138L180.997 233.004ZM158.313 219.908L158.813 219.042L158.813 219.042L158.313 219.908ZM152.161 210.205L153.161 210.205L153.161 210.205L152.161 210.205ZM152.162 182.108L153.162 182.108L153.162 182.107L152.162 182.108ZM158.312 179.509L158.812 178.643L158.812 178.643L158.312 179.509ZM180.996 192.605L181.496 191.739L181.496 191.739L180.996 192.605ZM186.148 202.308L186.147 230.405L188.147 230.405L188.148 202.308L186.148 202.308ZM186.147 230.405C186.147 231.828 185.594 232.522 184.955 232.792C184.244 233.093 183.05 233.035 181.497 232.138L180.496 233.87C182.336 234.933 184.218 235.275 185.733 234.635C187.321 233.964 188.147 232.379 188.147 230.405L186.147 230.405ZM181.497 232.138L158.813 219.042L157.813 220.774L180.497 233.87L181.497 232.138ZM158.813 219.042C157.277 218.156 155.849 216.704 154.807 215.059C153.759 213.406 153.161 211.656 153.161 210.205L151.161 210.205C151.16 212.151 151.939 214.271 153.118 216.13C154.301 217.997 155.95 219.699 157.813 220.774L158.813 219.042ZM153.161 210.205L153.162 182.108L151.162 182.108L151.161 210.205L153.161 210.205ZM153.162 182.107C153.16 180.685 153.712 179.991 154.351 179.721C155.062 179.42 156.256 179.477 157.812 180.375L158.812 178.643C156.97 177.58 155.087 177.238 153.572 177.879C151.984 178.55 151.16 180.136 151.162 182.109L153.162 182.107ZM157.812 180.375L180.496 193.471L181.496 191.739L158.812 178.643L157.812 180.375ZM180.495 193.471C182.029 194.358 183.456 195.81 184.499 197.454C185.546 199.107 186.146 200.857 186.148 202.31L188.148 202.307C188.145 200.361 187.366 198.242 186.188 196.383C185.004 194.517 183.357 192.816 181.496 191.739L180.495 193.471Z" fill="black" mask="url(#path-51-inside-3)"/>
<path d="M167.226 209.436L169.412 210.698L169.412 210.572C169.449 207.985 170.031 207.185 171.634 206.954C173.237 206.754 174.184 205.682 174.184 203.358C174.184 200.077 172.108 196.48 168.902 194.629C165.951 192.925 163.611 193.677 163.474 197.174L165.769 198.499C165.906 196.096 167.408 195.954 168.902 196.816C170.614 197.805 171.999 199.908 171.999 201.969C171.999 203.642 171.17 204.362 170.104 204.493C168.319 204.714 167.254 205.319 167.226 209.31L167.226 209.436ZM168.392 216.335C169.294 216.855 170.031 216.429 170.031 215.388C170.031 214.347 169.294 213.069 168.392 212.549C167.49 212.028 166.753 212.454 166.753 213.495C166.753 214.536 167.49 215.814 168.392 216.335Z" fill="#FFFFFE"/>
<path d="M261.105 41.1051L263.326 32.8735L265.891 41.2442L273.778 43.3257L265.684 45.7283L263.326 58.5848L260.898 45.7283L252.872 43.3257L261.105 41.1051Z" fill="#FFC200"/>
<path d="M261.965 41.3422C262.705 38.5971 263.445 35.8539 264.183 33.1089C263.611 33.1089 263.037 33.1089 262.464 33.1089C263.204 35.5257 263.946 37.9407 264.686 40.3576C264.938 41.1798 265.025 41.9183 265.948 42.1805C267.271 42.5568 268.61 42.8832 269.939 43.2346C271.14 43.5521 272.34 43.8678 273.54 44.1853C273.54 43.6127 273.54 43.0384 273.54 42.4659C270.842 43.2667 268.145 44.0676 265.446 44.8702C265.166 44.954 264.879 45.1913 264.824 45.4927C264.037 49.7788 263.252 54.0631 262.466 58.3492C263.038 58.3492 263.613 58.3492 264.185 58.3492C263.375 54.0631 262.568 49.7788 261.758 45.4927C261.701 45.1895 261.415 44.954 261.135 44.8702C258.46 44.0694 255.786 43.2685 253.111 42.4659C253.111 43.0384 253.111 43.6127 253.111 44.1853C255.856 43.4451 258.599 42.7049 261.344 41.9664C262.452 41.6686 261.981 39.9473 260.869 40.247C258.124 40.9872 255.381 41.7274 252.636 42.4659C251.771 42.6995 251.805 43.9374 252.636 44.1853C255.312 44.9861 257.985 45.787 260.661 46.5896C260.454 46.3827 260.245 46.1741 260.038 45.9671C260.848 50.2532 261.656 54.5376 262.466 58.8237C262.626 59.6727 264.028 59.678 264.185 58.8237C264.972 54.5376 265.757 50.2532 266.543 45.9671C266.336 46.1741 266.128 46.3827 265.921 46.5896C268.619 45.7888 271.316 44.9879 274.015 44.1853C274.844 43.9391 274.882 42.6942 274.015 42.4659C271.386 41.772 268.757 41.0782 266.129 40.3843C266.336 40.5912 266.545 40.7999 266.752 41.0068C265.896 38.2172 265.041 35.4258 264.185 32.6362C263.932 31.8086 262.699 31.7676 262.466 32.6362C261.726 35.3812 260.985 38.1245 260.247 40.8695C259.946 41.9771 261.667 42.4516 261.965 41.3422Z" fill="black"/>
<path d="M281.463 74.4634L282.552 70.4282L283.809 74.5316L287.676 75.552L283.708 76.7298L282.552 83.0322L281.362 76.7298L277.427 75.552L281.463 74.4634Z" fill="#FFC200"/>
<path d="M281.885 74.5796C282.248 73.234 282.611 71.8892 282.972 70.5436C282.692 70.5436 282.41 70.5436 282.13 70.5436C282.492 71.7283 282.856 72.9122 283.219 74.097C283.342 74.5001 283.385 74.8621 283.837 74.9906C284.486 75.1751 285.143 75.3351 285.794 75.5073C286.383 75.663 286.971 75.8177 287.559 75.9734C287.559 75.6927 287.559 75.4112 287.559 75.1305C286.237 75.5231 284.914 75.9157 283.592 76.3091C283.454 76.3502 283.313 76.4665 283.286 76.6143C282.901 78.7154 282.516 80.8156 282.13 82.9167C282.411 82.9167 282.693 82.9167 282.973 82.9167C282.576 80.8156 282.18 78.7154 281.783 76.6143C281.755 76.4657 281.615 76.3502 281.478 76.3091C280.167 75.9165 278.856 75.524 277.544 75.1305C277.544 75.4112 277.544 75.6927 277.544 75.9734C278.89 75.6105 280.235 75.2477 281.581 74.8857C282.123 74.7397 281.893 73.8959 281.348 74.0428C280.002 74.4056 278.658 74.7685 277.312 75.1305C276.888 75.245 276.904 75.8518 277.312 75.9734C278.623 76.366 279.934 76.7586 281.246 77.152C281.144 77.0506 281.042 76.9483 280.94 76.8469C281.337 78.948 281.734 81.0482 282.13 83.1493C282.209 83.5655 282.896 83.5681 282.973 83.1493C283.359 81.0482 283.744 78.948 284.129 76.8469C284.028 76.9483 283.926 77.0506 283.824 77.152C285.147 76.7594 286.469 76.3668 287.792 75.9734C288.199 75.8527 288.217 75.2424 287.792 75.1305C286.503 74.7904 285.214 74.4502 283.926 74.1101C284.028 74.2115 284.13 74.3138 284.232 74.4153C283.812 73.0478 283.393 71.6794 282.973 70.3119C282.849 69.9062 282.245 69.8861 282.13 70.3119C281.768 71.6575 281.405 73.0023 281.043 74.3479C280.895 74.8909 281.739 75.1235 281.885 74.5796Z" fill="black"/>
<path d="M288.789 53.7896L290.202 48.5554L291.832 53.878L296.848 55.2016L291.701 56.7293L290.202 64.9043L288.658 56.7293L283.554 55.2016L288.789 53.7896Z" fill="#FFC200"/>
<path d="M289.336 53.9404C289.807 52.1949 290.278 50.4506 290.747 48.7051C290.383 48.7051 290.018 48.7051 289.654 48.7051C290.124 50.2419 290.596 51.7775 291.067 53.3143C291.227 53.8372 291.282 54.3067 291.869 54.4734C292.71 54.7127 293.562 54.9203 294.407 55.1437C295.17 55.3456 295.934 55.5463 296.697 55.7482C296.697 55.3841 296.697 55.0189 296.697 54.6549C294.981 55.1641 293.266 55.6734 291.55 56.1837C291.372 56.237 291.189 56.3879 291.154 56.5796C290.654 59.3049 290.155 62.0292 289.655 64.7546C290.019 64.7546 290.384 64.7546 290.748 64.7546C290.233 62.0292 289.72 59.3049 289.205 56.5796C289.168 56.3867 288.987 56.237 288.809 56.1837C287.108 55.6745 285.407 55.1653 283.706 54.6549C283.706 55.0189 283.706 55.3841 283.706 55.7482C285.452 55.2775 287.196 54.8069 288.941 54.3373C289.646 54.1479 289.346 53.0534 288.64 53.244C286.894 53.7147 285.15 54.1853 283.405 54.6549C282.854 54.8035 282.876 55.5906 283.405 55.7482C285.106 56.2575 286.806 56.7667 288.507 57.2771C288.376 57.1455 288.243 57.0128 288.111 56.8812C288.626 59.6066 289.14 62.3309 289.655 65.0563C289.757 65.5961 290.648 65.5995 290.748 65.0563C291.248 62.3309 291.747 59.6066 292.248 56.8812C292.116 57.0128 291.983 57.1455 291.852 57.2771C293.568 56.7678 295.283 56.2586 296.999 55.7482C297.526 55.5917 297.55 54.8001 296.999 54.6549C295.327 54.2137 293.655 53.7725 291.984 53.3313C292.116 53.4629 292.249 53.5956 292.38 53.7271C291.836 51.9533 291.293 50.1784 290.748 48.4045C290.587 47.8783 289.803 47.8522 289.655 48.4045C289.184 50.15 288.714 51.8943 288.244 53.6398C288.052 54.3441 289.147 54.6458 289.336 53.9404Z" fill="black"/>
<path d="M25.7842 52.7842L27.4388 46.6509L29.3499 52.8879L35.2267 54.4388L29.1957 56.229L27.4388 65.8085L25.63 56.229L19.6495 54.4388L25.7842 52.7842Z" fill="#FFC200"/>
<path d="M26.4248 52.9609C26.9763 50.9156 27.5278 48.8716 28.0781 46.8262C27.6514 46.8262 27.2235 46.8262 26.7969 46.8262C27.3484 48.627 27.9013 50.4265 28.4528 52.2273C28.6402 52.84 28.7053 53.3902 29.3924 53.5855C30.3786 53.866 31.3766 54.1092 32.3668 54.371C33.2612 54.6075 34.1556 54.8428 35.05 55.0793C35.05 54.6527 35.05 54.2248 35.05 53.7982C33.0392 54.3949 31.0298 54.9916 29.019 55.5897C28.8103 55.6521 28.5964 55.8289 28.5552 56.0535C27.9691 59.2471 27.3843 62.4394 26.7982 65.633C27.2248 65.633 27.6528 65.633 28.0794 65.633C27.476 62.4394 26.874 59.2471 26.2706 56.0535C26.2281 55.8276 26.0154 55.6521 25.8068 55.5897C23.8133 54.9929 21.8211 54.3962 19.8276 53.7982C19.8276 54.2248 19.8276 54.6527 19.8276 55.0793C21.8729 54.5278 23.9169 53.9763 25.9623 53.4261C26.7876 53.2041 26.4367 51.9216 25.6087 52.1449C23.5634 52.6964 21.5194 53.248 19.4741 53.7982C18.8295 53.9723 18.8547 54.8946 19.4741 55.0793C21.4676 55.6761 23.4598 56.2728 25.4533 56.8708C25.2991 56.7167 25.1436 56.5612 24.9894 56.407C25.5928 59.6006 26.1949 62.7929 26.7982 65.9865C26.9178 66.6191 27.9624 66.6231 28.0794 65.9865C28.6655 62.7929 29.2502 59.6006 29.8363 56.407C29.6822 56.5612 29.5267 56.7167 29.3725 56.8708C31.3833 56.2741 33.3927 55.6774 35.4035 55.0793C36.0215 54.8959 36.0494 53.9683 35.4035 53.7982C33.4446 53.2812 31.4856 52.7642 29.528 52.2472C29.6821 52.4014 29.8377 52.5569 29.9918 52.711C29.3539 50.6325 28.7173 48.5526 28.0794 46.474C27.8907 45.8574 26.9723 45.8268 26.7982 46.474C26.2467 48.5194 25.6951 50.5634 25.1449 52.6087C24.9203 53.434 26.2028 53.7875 26.4248 52.9609Z" fill="black"/>
<path d="M34.4634 75.4634L35.552 71.4282L36.8093 75.5316L40.6757 76.552L36.7079 77.7298L35.552 84.0322L34.362 77.7298L30.4273 76.552L34.4634 75.4634Z" fill="#FFC200"/>
<path d="M34.8848 75.5796C35.2477 74.234 35.6106 72.8892 35.9726 71.5436C35.6919 71.5436 35.4103 71.5436 35.1297 71.5436C35.4925 72.7283 35.8563 73.9122 36.2191 75.097C36.3424 75.5001 36.3853 75.8621 36.8373 75.9906C37.4861 76.1751 38.1427 76.3351 38.7941 76.5073C39.3826 76.663 39.971 76.8177 40.5595 76.9734C40.5595 76.6927 40.5595 76.4112 40.5595 76.1305C39.2366 76.5231 37.9145 76.9157 36.5916 77.3091C36.4543 77.3502 36.3136 77.4665 36.2865 77.6143C35.9009 79.7154 35.5161 81.8156 35.1305 83.9167C35.4112 83.9167 35.6928 83.9167 35.9734 83.9167C35.5765 81.8156 35.1804 79.7154 34.7834 77.6143C34.7554 77.4657 34.6155 77.3502 34.4783 77.3091C33.1667 76.9165 31.856 76.524 30.5445 76.1305C30.5445 76.4112 30.5445 76.6927 30.5445 76.9734C31.8901 76.6105 33.2349 76.2477 34.5806 75.8857C35.1235 75.7397 34.8927 74.8959 34.348 75.0428C33.0023 75.4056 31.6576 75.7685 30.3119 76.1305C29.8878 76.245 29.9045 76.8518 30.3119 76.9734C31.6235 77.366 32.9341 77.7586 34.2457 78.152C34.1443 78.0506 34.042 77.9483 33.9405 77.8469C34.3375 79.948 34.7336 82.0482 35.1305 84.1493C35.2092 84.5655 35.8965 84.5681 35.9734 84.1493C36.359 82.0482 36.7437 79.948 37.1293 77.8469C37.0279 77.9483 36.9256 78.0506 36.8242 78.152C38.1471 77.7594 39.4691 77.3668 40.7921 76.9734C41.1986 76.8527 41.217 76.2424 40.7921 76.1305C39.5032 75.7904 38.2144 75.4502 36.9265 75.1101C37.0279 75.2115 37.1302 75.3138 37.2316 75.4153C36.812 74.0478 36.3931 72.6794 35.9734 71.3119C35.8493 70.9062 35.2451 70.8861 35.1305 71.3119C34.7677 72.6575 34.4048 74.0023 34.0428 75.3479C33.8951 75.8909 34.7388 76.1235 34.8848 75.5796Z" fill="black"/>
<defs>
<filter id="filter0_i" x="228.97" y="83.7883" width="26.8124" height="86.066" filterUnits="userSpaceOnUse" color-interpolation-filters="sRGB">
<feFlood flood-opacity="0" result="BackgroundImageFix"/>
<feBlend mode="normal" in="SourceGraphic" in2="BackgroundImageFix" result="shape"/>
<feColorMatrix in="SourceAlpha" type="matrix" values="0 0 0 0 0 0 0 0 0 0 0 0 0 0 0 0 0 0 127 0" result="hardAlpha"/>
<feOffset dx="-4" dy="1"/>
<feComposite in2="hardAlpha" operator="arithmetic" k2="-1" k3="1"/>
<feColorMatrix type="matrix" values="0 0 0 0 0.116267 0 0 0 0 0.754167 0 0 0 0 0.288332 0 0 0 1 0"/>
<feBlend mode="normal" in2="shape" result="effect1_innerShadow"/>
</filter>
<filter id="filter1_i" x="40.9999" y="41" width="61.9124" height="60.1591" filterUnits="userSpaceOnUse" color-interpolation-filters="sRGB">
<feFlood flood-opacity="0" result="BackgroundImageFix"/>
<feBlend mode="normal" in="SourceGraphic" in2="BackgroundImageFix" result="shape"/>
<feColorMatrix in="SourceAlpha" type="matrix" values="0 0 0 0 0 0 0 0 0 0 0 0 0 0 0 0 0 0 127 0" result="hardAlpha"/>
<feOffset dx="-5" dy="1"/>
<feComposite in2="hardAlpha" operator="arithmetic" k2="-1" k3="1"/>
<feColorMatrix type="matrix" values="0 0 0 0 0.116267 0 0 0 0 0.754167 0 0 0 0 0.288332 0 0 0 1 0"/>
<feBlend mode="normal" in2="shape" result="effect1_innerShadow"/>
</filter>
<linearGradient id="paint0_linear" x1="71.1219" y1="178.163" x2="120.187" y2="20.8385" gradientUnits="userSpaceOnUse">
<stop stop-color="#9FC6FF"/>
<stop offset="0.742121" stop-color="#A3E3FF"/>
</linearGradient>
<linearGradient id="paint1_linear" x1="61.4406" y1="153.911" x2="103.827" y2="18.0019" gradientUnits="userSpaceOnUse">
<stop stop-color="#9FC6FF"/>
<stop offset="0.742121" stop-color="#A3E3FF"/>
</linearGradient>
</defs>
</svg>
